<svg width="1200" height="400" viewBox="0 0 1200 400" xmlns="http://www.w3.org/2000/svg" role="img" aria-labelledby="title desc">
  <title id="title">i-emporio logo concept 1</title>
  <desc id="desc">Modern wordmark with monogram icon and fillable background.</desc>
  <defs>
    <style>
      :root {
        --bg: #f4f1e6;
        --brand: #6b8e23;
      }
      .bg { fill: var(--bg); }
      .brand { fill: var(--brand); }
      .wordmark {
        font-family: "Poppins", "Avenir Next", "Segoe UI", sans-serif;
        font-size: 120px;
        font-weight: 600;
        letter-spacing: 1px;
      }
    </style>
  </defs>

  <rect class="bg" x="0" y="0" width="1200" height="400" rx="28"/>

  <g transform="translate(120 85)">
    <rect class="brand" x="0" y="0" width="210" height="210" rx="44" opacity="0.14"/>
    <path class="brand" d="M55 160V95h26v65c0 18 10 27 28 27h14v23h-18c-32 0-50-19-50-50z"/>
    <circle class="brand" cx="68" cy="70" r="15"/>
    <path class="brand" d="M122 210V95h26v16c10-12 23-19 40-19 35 0 59 25 59 61s-24 60-59 60c-17 0-30-7-40-19v16h-26zm62-22c23 0 38-16 38-35s-15-36-38-36c-22 0-38 16-38 36s16 35 38 35z"/>
  </g>

  <text class="brand wordmark" x="370" y="235">i-emporio</text>
</svg>
